<svg fill="#003366" xmlns="http://www.w3.org/2000/svg" xmlns:xlink="http://www.w3.org/1999/xlink" version="1.1" x="0px" y="0px" viewBox="0 0 100 100" style="enable-background:new 0 0 100 100;" xml:space="preserve"><g><polyline points="61.1854858,20.8005657 80.0159149,25.7434616 74.8813095,44.52248 68.3727722,51.0974846 74.4221039,28.9730244    52.2371483,23.1494675 61.1854858,20.8005657  "/><polyline points="41.0515289,20.2135544 49.9998512,17.8646469 58.9484711,20.2135544 49.9998512,22.5624542    41.0515289,20.2135544  "/><polyline points="19.984087,25.7434616 38.8145142,20.8005657 47.7628403,23.1494675 25.5778942,28.9730244 31.6272259,51.0974846    25.1186771,44.52248 19.984087,25.7434616  "/><polyline points="12.9918966,21.7065048 27.6288872,17.8646469 36.5772171,20.2135544 18.5857029,24.9360695    23.4914017,42.8787308 16.9831314,36.3034439 12.9918966,21.7065048  "/><polyline points="29.8659019,17.2773495 38.8145142,14.9284477 47.7628403,17.2773495 38.8145142,19.626255 29.8659019,17.2773495     "/><polyline points="49.9998512,11.9922419 58.9484711,14.3411493 49.9998512,16.690052 41.0515289,14.3411493 49.9998512,11.9922419     "/><polyline points="61.1854858,14.9284477 70.1340866,17.2773495 61.1854858,19.626255 52.2371483,17.2773495 61.1854858,14.9284477     "/><polyline points="63.4227829,20.2135544 72.3711014,17.8646469 87.0080872,21.7065048 83.016861,36.3034439 76.5083237,42.8787308    81.4142914,24.9360695 63.4227829,20.2135544  "/><polyline points="74.6083984,17.2773495 83.5567245,14.9284477 94,17.6698303 91.1523972,28.0843868 84.6441422,34.6596947    88.4064789,20.8991127 74.6083984,17.2773495  "/><polyline points="72.3711014,11.9922419 81.3197174,14.3411493 72.3711014,16.690052 63.4227829,14.3411493 72.3711014,11.9922419     "/><polyline points="52.2371483,11.4049444 61.1854858,9.0560417 70.1340866,11.4049444 61.1854858,13.7538519 52.2371483,11.4049444     "/><polyline points="49.9998512,6.1198392 58.9484711,8.4687443 49.9998512,10.8179312 41.0515289,8.4687443 49.9998512,6.1198392     "/><polyline points="38.8145142,9.0560417 47.7628403,11.4049444 38.8145142,13.7538519 29.8659019,11.4049444 38.8145142,9.0560417     "/><polyline points="27.6288872,16.690052 18.6802692,14.3411493 27.6288872,11.9922419 36.5772171,14.3411493 27.6288872,16.690052     "/><polyline points="11.5935154,20.8991127 15.3558598,34.6596947 8.8475895,28.0843868 6,17.6698303 16.4432678,14.9284477    25.391592,17.2773495 11.5935154,20.8991127  "/><polyline points="71.8312454,55.6774406 65.3229675,62.2527275 67.7627563,53.3285332 74.2713013,46.7535362    71.8312454,55.6774406  "/><polyline points="79.9667816,47.4586906 73.4585114,54.0336952 75.8985748,45.109787 82.4068527,38.5345001 79.9667816,47.4586906     "/><polyline points="88.1023331,39.2396507 81.5940475,45.8146553 84.0341187,36.8907509 90.5423889,30.315464 88.1023331,39.2396507     "/><polyline points="87.4923096,41.4706917 85.0525208,50.3945999 78.5439758,56.9699211 80.9840393,48.0456963    87.4923096,41.4706917  "/><polyline points="82.0024643,61.549839 75.4938965,68.1248474 77.9339523,59.2009392 84.4425125,52.6256599 82.0024643,61.549839     "/><polyline points="76.9169693,58.6136398 70.408432,65.1886444 72.8485031,56.2647362 79.3567581,49.6894493 76.9169693,58.6136398     "/><polyline points="73.8669205,69.7686005 67.3583527,76.3438873 69.7984161,67.4196854 76.3069611,60.8446922    73.8669205,69.7686005  "/><polyline points="61.6628723,75.6387253 68.1711426,69.0634384 65.7313843,77.9876328 59.2228088,84.5629196    61.6628723,75.6387253  "/><polyline points="71.2212143,57.9084892 68.7811508,66.8326797 62.272892,73.4076767 64.7129593,64.4837723 71.2212143,57.9084892     "/><polyline points="34.2686424,77.9876328 31.8285789,69.0634384 38.3371162,75.6387253 40.7771835,84.5629196    34.2686424,77.9876328  "/><polyline points="37.727108,73.4076767 31.2185574,66.8326797 28.7787704,57.9084892 35.2870445,64.4837723 37.727108,73.4076767     "/><polyline points="34.677021,62.2527275 28.1687622,55.6774406 25.7286987,46.7535362 32.2369537,53.3285332 34.677021,62.2527275     "/><polyline points="26.5414753,54.0336952 20.0332184,47.4586906 17.593153,38.5345001 24.1014099,45.109787 26.5414753,54.0336952     "/><polyline points="18.4059353,45.8146553 11.8973942,39.2396507 9.4576101,30.315464 15.965868,36.8907509 18.4059353,45.8146553     "/><polyline points="21.4560223,56.9699211 14.9474697,50.3945999 12.5074034,41.4706917 19.015955,48.0456963 21.4560223,56.9699211     "/><polyline points="23.0830154,58.6136398 20.6432285,49.6894493 27.1515007,56.2647362 29.5915642,65.1886444    23.0830154,58.6136398  "/><polyline points="17.9975567,61.549839 15.5574903,52.6256599 22.0660419,59.2009392 24.5061054,68.1248474 17.9975567,61.549839     "/><polyline points="30.2015724,67.4196854 32.6416473,76.3438873 26.1330986,69.7686005 23.6930351,60.8446922    30.2015724,67.4196854  "/><polyline points="57.5958138,86.2066956 49.9998512,93.8801575 42.4041862,86.2066956 39.964119,77.2824707 49.9998512,87.4210129    60.0355988,77.2824707 57.5958138,86.2066956  "/><polyline points="26.9762783,29.7804222 49.9998512,23.7367668 73.0237274,29.7804222 66.7457733,52.7412376    49.9998512,69.6586914 33.2542191,52.7412376 26.9762783,29.7804222  "/><polyline points="66.1357574,54.9722786 63.695694,63.8964806 49.9998512,77.732605 36.304306,63.8964806 33.8642387,54.9722786    49.9998512,71.2734756 66.1357574,54.9722786  "/><polyline points="63.0856743,66.1275177 60.645607,75.0514297 49.9998512,85.8062286 39.3543816,75.0514297 36.9143143,66.1275177    49.9998512,79.3473892 63.0856743,66.1275177  "/></g></svg>